<?xml version="1.0" encoding="UTF-8" standalone="no"?>
<svg
   xmlns:dc="http://purl.org/dc/elements/1.1/"
   xmlns:cc="http://creativecommons.org/ns#"
   xmlns:rdf="http://www.w3.org/1999/02/22-rdf-syntax-ns#"
   xmlns:svg="http://www.w3.org/2000/svg"
   xmlns="http://www.w3.org/2000/svg"
   xmlns:sodipodi="http://sodipodi.sourceforge.net/DTD/sodipodi-0.dtd"
   xmlns:inkscape="http://www.inkscape.org/namespaces/inkscape"
   inkscape:version="1.0 (4035a4fb49, 2020-05-01)"
   sodipodi:docname="ChefHat.svg"
   id="svg12"
   viewBox="0 0 21000 29700"
   style="shape-rendering:geometricPrecision; text-rendering:geometricPrecision; image-rendering:optimizeQuality; fill-rule:evenodd; clip-rule:evenodd"
   version="1.1"
   height="297mm"
   width="210mm"
   xml:space="preserve"><metadata
   id="metadata16"><rdf:RDF><cc:Work
       rdf:about=""><dc:format>image/svg+xml</dc:format><dc:type
         rdf:resource="http://purl.org/dc/dcmitype/StillImage" /></cc:Work></rdf:RDF></metadata><sodipodi:namedview
   inkscape:current-layer="svg12"
   inkscape:window-maximized="1"
   inkscape:window-y="22"
   inkscape:window-x="-8"
   inkscape:cy="561.25984"
   inkscape:cx="396.85039"
   inkscape:zoom="0.76613356"
   showgrid="false"
   id="namedview14"
   inkscape:window-height="1027"
   inkscape:window-width="1920"
   inkscape:pageshadow="2"
   inkscape:pageopacity="0"
   guidetolerance="10"
   gridtolerance="10"
   objecttolerance="10"
   borderopacity="1"
   bordercolor="#666666"
   pagecolor="#ffffff" />
 <defs
   id="defs4">
  <style
   id="style2"
   type="text/css">
   <![CDATA[
    .fil0 {fill:#323132}
    .fil1 {fill:#323132;fill-rule:nonzero}
   ]]>
  </style>
 </defs>
 <g
   style="fill:#ffffff"
   id="Camada_x0020_1">
  <metadata
   id="CorelCorpID_0Corel-Layer" />
  <path
   style="fill:#ffffff"
   id="path7"
   d="M12556 8094c-50,618 42,1353 293,2204 -1136,-175 -2079,-183 -2848,-8 1136,0 2079,109 2823,317 -819,-66 -1495,-108 -2030,-108 1754,317 2923,576 3499,776 -1052,-125 -1962,-158 -2722,-233 -2589,-243 -3156,484 -4167,233 -8,-968 -50,-1795 -117,-2480 125,351 226,660 309,927 819,-409 1846,-551 3098,-426 -1211,42 -2213,284 -3023,718 51,176 84,334 109,468 1403,-685 2998,-868 4517,-518 -125,-785 -158,-1503 -91,-2154 -401,-259 -927,-409 -1570,-468 1770,-259 1979,1061 3139,710 393,-117 727,-384 927,-760 1286,-2647 -2363,-4125 -4709,-2196 200,-526 434,-910 710,-1144 -159,-418 -485,-752 -902,-910 -1345,-526 -2055,801 -2013,1971 -108,-326 -175,-677 -192,-1053 -359,-100 -743,-25 -1044,184 -918,660 -609,2305 67,3048 518,568 1278,860 2054,785 -818,-267 -1377,-802 -1670,-1595 577,969 1345,1403 2305,1311 -610,-359 -919,-1019 -944,-1987 117,926 702,1586 1754,1970 -852,668 -1954,844 -2939,535 -1111,-343 -1762,-1244 -1837,-2297 -92,-1311 517,-2722 2238,-2371 300,-752 1043,-1228 1845,-1178 802,50 1486,602 1695,1378 418,-184 860,-300 1319,-342 1545,-159 2990,852 3040,2455 25,818 -301,1628 -927,2213 -585,476 -1411,467 -1996,25l0 0z"
   class="fil0" />
  <path
   style="fill:#ffffff"
   id="path9"
   d="M18961 13897l0 493 -426 0 0 960c0,193 0,309 9,343 8,33 25,58 58,75 25,25 67,33 109,33 58,0 142,-16 250,-58l50 484c-142,67 -309,92 -492,92 -109,0 -209,-17 -301,-50 -92,-42 -159,-92 -200,-150 -42,-59 -76,-142 -92,-251 -9,-67 -17,-217 -17,-443l0 -1035 -284 0 0 -493 284 0 0 -475 626 -368 0 843 426 0zm-2313 1236c-75,25 -209,59 -384,92 -167,42 -284,75 -334,109 -84,58 -125,133 -125,225 0,84 33,159 100,226 67,66 150,91 250,91 109,0 217,-33 318,-108 75,-59 125,-125 150,-209 17,-50 25,-150 25,-300l0 -126zm-835 -509l-568 -101c59,-233 176,-400 326,-509 159,-117 392,-167 701,-167 276,0 484,34 618,100 142,59 234,143 293,251 50,100 83,284 83,559l-8 727c0,209 8,359 25,459 25,100 58,209 117,318l-627 0c-17,-42 -33,-101 -58,-184 -8,-34 -17,-59 -17,-67 -108,100 -225,184 -342,234 -125,50 -251,75 -393,75 -242,0 -434,-67 -576,-192 -133,-134 -209,-301 -209,-501 0,-134 34,-259 101,-359 58,-109 150,-184 267,-242 117,-59 275,-100 493,-142 292,-59 500,-109 609,-159l0 -58c0,-126 -25,-209 -92,-268 -58,-50 -167,-75 -334,-75 -108,0 -200,25 -259,67 -67,42 -117,125 -150,234l0 0zm-3758 1637l0 -3266 660 0 0 1287 1286 0 0 -1287 660 0 0 3266 -660 0 0 -1429 -1286 0 0 1429 -660 0zm-1795 -2364l342 0 0 -183c0,-201 25,-343 67,-443 42,-100 117,-184 234,-242 117,-59 259,-92 434,-92 176,0 351,25 526,84l-83 434c-100,-25 -201,-42 -293,-42 -91,0 -158,25 -200,67 -42,41 -58,125 -58,242l0 175 467 0 0 493 -467 0 0 1871 -627 0 0 -1871 -342 0 0 -493zm-860 986c-8,-184 -50,-326 -142,-418 -92,-92 -201,-142 -326,-142 -133,0 -250,50 -334,151 -91,100 -133,233 -133,409l935 0zm-42 634l626 100c-75,234 -208,410 -375,526 -175,118 -393,176 -652,176 -409,0 -718,-134 -910,-401 -159,-217 -234,-484 -234,-818 0,-393 101,-702 301,-919 209,-225 468,-334 777,-334 359,0 634,117 835,351 200,225 300,584 292,1069l-1562 0c0,183 51,326 151,434 91,100 217,150 359,150 91,0 175,-25 242,-75 67,-58 117,-142 150,-259l0 0zm-3540 -2522l0 1211c208,-242 450,-359 734,-359 142,0 276,25 393,75 117,59 200,126 259,209 58,84 100,175 125,276 17,100 33,259 33,467l0 1387 -626 0 0 -1245c0,-250 -17,-409 -42,-476 -16,-66 -66,-117 -125,-158 -58,-42 -134,-59 -225,-59 -109,0 -201,25 -284,75 -84,50 -142,125 -184,226 -33,108 -58,259 -58,451l0 1186 -618 0 0 -3266 618 0zm-1812 2063l634 201c-92,358 -259,626 -484,801 -234,167 -518,259 -869,259 -434,0 -793,-150 -1068,-443 -284,-300 -426,-701 -426,-1219 0,-543 142,-968 426,-1269 283,-301 651,-451 1110,-451 401,0 718,117 969,359 150,134 259,334 334,601l-652 151c-33,-167 -116,-301 -242,-401 -125,-92 -267,-142 -442,-142 -243,0 -443,83 -593,259 -150,175 -226,451 -226,843 0,409 76,710 226,885 142,176 342,259 576,259 175,0 326,-58 451,-167 125,-109 217,-284 276,-526l0 0z"
   class="fil1" />
 </g>
</svg>
